<?xml version="1.0" encoding="UTF-8"?>
<svg width="175px" height="60px" viewBox="0 0 175 60" version="1.1" xmlns="http://www.w3.org/2000/svg" xmlns:xlink="http://www.w3.org/1999/xlink">
    <!-- Generator: Sketch 42 (36781) - http://www.bohemiancoding.com/sketch -->
    <title>logo-blue</title>
    <desc>Created with Sketch.</desc>
    <defs></defs>
    <g id="Page-1" stroke="none" stroke-width="1" fill="none" fill-rule="evenodd">
        <g id="logo-blue" fill="#0379C4">
            <g id="AMP-Brand-Blue">
                <g id="Group">
                    <path d="M92.938,34.265 L100.008,34.265 L97.628,27.25 C97.475,26.805 97.294,26.28 97.088,25.676 C96.878,25.073 96.674,24.42 96.473,23.716 C96.285,24.431 96.089,25.094 95.888,25.704 C95.686,26.314 95.496,26.84 95.318,27.284 L92.938,34.264 L92.938,34.265 Z M109.57,44.059 L104.914,44.059 C104.392,44.059 103.964,43.937 103.624,43.697 C103.288,43.457 103.054,43.149 102.924,42.774 L101.396,38.309 L91.552,38.309 L90.022,42.774 C89.906,43.102 89.674,43.399 89.332,43.662 C88.988,43.926 88.567,44.058 88.069,44.058 L83.377,44.058 L93.4,18.44 L99.547,18.44 L109.57,44.06 L109.57,44.059 Z M130.562,33.736 C130.782,34.216 130.992,34.711 131.192,35.216 C131.394,34.698 131.607,34.196 131.832,33.711 C132.057,33.224 132.288,32.751 132.525,32.295 L139.17,19.341 C139.29,19.117 139.41,18.944 139.535,18.821 C139.659,18.698 139.799,18.607 139.952,18.548 C140.106,18.488 140.282,18.46 140.476,18.46 L145.746,18.46 L145.746,44.06 L140.451,44.06 L140.451,29.324 C140.451,28.61 140.486,27.834 140.557,27.004 L133.699,40.172 C133.486,40.582 133.199,40.892 132.837,41.104 C132.475,41.314 132.064,41.42 131.602,41.42 L130.786,41.42 C130.324,41.42 129.913,41.316 129.551,41.105 C129.188,40.895 128.901,40.585 128.687,40.173 L121.794,26.986 C121.841,27.396 121.877,27.804 121.9,28.208 C121.923,28.613 121.935,28.986 121.935,29.325 L121.935,44.06 L116.64,44.06 L116.64,18.46 L121.909,18.46 C122.103,18.46 122.279,18.488 122.432,18.547 C122.586,18.607 122.725,18.697 122.849,18.821 C122.974,18.944 123.095,19.117 123.214,19.341 L129.877,32.347 C130.114,32.793 130.341,33.257 130.561,33.737 L130.562,33.736 Z M160.99,31.013 L164.117,31.013 C165.68,31.013 166.805,30.643 167.493,29.905 C168.18,29.167 168.523,28.135 168.523,26.811 C168.523,26.226 168.435,25.691 168.257,25.211 C168.079,24.731 167.809,24.318 167.449,23.971 C167.086,23.627 166.629,23.359 166.079,23.171 C165.529,22.984 164.873,22.891 164.116,22.891 L160.989,22.891 L160.989,31.014 L160.99,31.013 Z M160.99,35.496 L160.99,44.058 L154.984,44.058 L154.984,18.442 L164.117,18.442 C165.941,18.442 167.507,18.656 168.817,19.082 C170.125,19.512 171.204,20.1 172.05,20.852 C172.897,21.602 173.523,22.486 173.925,23.505 C174.328,24.525 174.529,25.627 174.529,26.811 C174.529,28.089 174.321,29.261 173.907,30.329 C173.491,31.394 172.857,32.309 172.005,33.071 C171.152,33.833 170.071,34.428 168.762,34.855 C167.454,35.285 165.905,35.497 164.116,35.497 L160.989,35.497 L160.99,35.496 Z M40.674,27.253 L27.968,48.196 L25.666,48.196 L27.942,34.549 L20.894,34.559 L20.794,34.559 C20.161,34.559 19.646,34.049 19.646,33.422 C19.646,33.152 19.9,32.695 19.9,32.695 L32.564,11.775 L34.904,11.785 L32.572,25.453 L39.656,25.445 L39.768,25.443 C40.403,25.443 40.918,25.953 40.918,26.583 C40.918,26.837 40.818,27.061 40.673,27.251 L40.674,27.253 Z M30.288,0 C13.56,0 0,13.432 0,30 C0,46.57 13.56,60 30.288,60 C47.018,60 60.578,46.569 60.578,30 C60.578,13.432 47.018,0 30.288,0 L30.288,0 Z" id="Shape"></path>
                </g>
            </g>
        </g>
    </g>
</svg>