<svg xmlns="http://www.w3.org/2000/svg" width="438.5" height="438.5"><path d="M409 114.6c-19.5-33.6-46-60.2-79.7-79.8-33.6-19.6-70.2-29.4-110-29.4s-76.5 9.8-110 29.4C75.5 54.4 49 81 29.3 114.6 10 148.2 0 185 0 224.6c0 47.8 14 90.8 41.8 129 28 38 64 64.5 108 79.2 5.2 1 9 .2 11.5-2 2.5-2.3 3.7-5.2 3.7-8.6v-15.4l-.3-25.4-6.5 1c-4.2 1-9.5 1.2-16 1-6.3 0-13-.6-19.7-2-7-1-13.3-4-19.2-8.4-6-4.5-10-10.4-12.5-17.6l-3-6.6c-1.8-4.3-4.8-9.2-9-14.5-4-5.4-8-9-12.3-11l-2-1.3c-1.3-1-2.5-2-3.7-3.4-1-1.4-2-2.7-2.6-4-.5-1.4 0-2.5 1.5-3.3 1.5-1 4.3-1.3 8.2-1.3l5 1c4 .6 8 3 14 6.7 5 3.8 10 8.8 14 15 4 7.7 9 13.6 16 17.7 6 4 12 6 18 6s11-.3 16-1.3c4 0 9-2 13-4 1-12 6-22 14-29-11-1-21-3-30-5s-18-6-27-11-17-11-23-19-11-17-15-30c-3-12-5-27-5-43 0-23 7-42 22-59-7-17-6.5-36 2-58 5.4-1 13.6 0 24.5 4 10.6 5 18.6 8 23.6 11l12 8c18-5 36-7 55-7s37 3 55 8l11-6.7c7.6-4.7 16-9 26-12.7 10-4 18-5 23-3 9 22 10 41 2.8 58 15 17 22.7 36 22.7 59 0 16-2 31-6 43-3 13-8 23-15 30-6 8-14 14-23 19s-18 9-27 11c-8 2.8-18 4-29 5 10 9 15 22 15 41v60c0 3.5 1 6 4 8.7 2.6 2 6 3 11.5 2 44-15 80-41 108-79.5 28-38 42-81 42-129 0-39.6-10-76.3-29.4-110z"/></svg>
